<svg width="41" height="27" viewBox="0 0 41 27" fill="none" xmlns="http://www.w3.org/2000/svg">
<path d="M14.645 4.395C14.2179 4.36217 13.819 4.16936 13.528 3.8551C13.237 3.54084 13.0753 3.12831 13.0753 2.7C13.0753 2.27169 13.237 1.85916 13.528 1.5449C13.819 1.23065 14.2179 1.03783 14.645 1.005H26.645C26.8785 0.987049 27.1133 1.01755 27.3345 1.09459C27.5557 1.17164 27.7585 1.29356 27.9304 1.45271C28.1022 1.61185 28.2394 1.8048 28.3331 2.01944C28.4269 2.23408 28.4753 2.46577 28.4753 2.7C28.4753 2.93423 28.4269 3.16593 28.3331 3.38056C28.2394 3.5952 28.1022 3.78815 27.9304 3.9473C27.7585 4.10644 27.5557 4.22836 27.3345 4.30541C27.1133 4.38245 26.8785 4.41295 26.645 4.395H14.645ZM6.505 11.485C6.51284 11.0146 6.70456 10.5659 7.03913 10.2351C7.37369 9.90423 7.8245 9.71755 8.295 9.715H9.695L12.355 7.455C12.5587 7.28139 12.8174 7.18571 13.085 7.185H28.345C28.7548 7.18729 29.1478 7.34769 29.4422 7.63275C29.7366 7.91781 29.9095 8.30552 29.925 8.715V10.865H31.715C32.135 10.8676 32.5368 11.0363 32.8328 11.3342C33.1289 11.6321 33.295 12.035 33.295 12.455V24.845C33.295 25.264 33.1285 25.6659 32.8322 25.9622C32.5359 26.2585 32.134 26.425 31.715 26.425H18.155C17.9199 26.4262 17.6899 26.3565 17.495 26.225L12.505 22.715H8.295C8.05653 22.7151 7.82045 22.6675 7.60063 22.575C7.38081 22.4826 7.18167 22.3471 7.01492 22.1767C6.84817 22.0062 6.71717 21.8041 6.6296 21.5823C6.54203 21.3605 6.49967 21.1234 6.505 20.885V11.485ZM4.395 21.265C4.36217 21.6921 4.16936 22.091 3.8551 22.382C3.54084 22.673 3.12831 22.8347 2.7 22.8347C2.27169 22.8347 1.85916 22.673 1.5449 22.382C1.23064 22.091 1.03783 21.6921 1.005 21.265V11.095C0.987049 10.8615 1.01755 10.6267 1.09459 10.4055C1.17164 10.1844 1.29356 9.98146 1.4527 9.80961C1.61185 9.63776 1.8048 9.50065 2.01944 9.40688C2.23408 9.31311 2.46577 9.26471 2.7 9.26471C2.93423 9.26471 3.16593 9.31311 3.38056 9.40688C3.5952 9.50065 3.78815 9.63776 3.9473 9.80961C4.10644 9.98146 4.22836 10.1844 4.30541 10.4055C4.38245 10.6267 4.41295 10.8615 4.395 11.095V21.265ZM4.395 16.175H6.505ZM35.145 11.935C35.1476 11.6361 35.2675 11.3502 35.4789 11.1389C35.6902 10.9275 35.9761 10.8076 36.275 10.805H37.105C37.2855 10.8057 37.4633 10.8496 37.6234 10.9332C37.7834 11.0167 37.9212 11.1373 38.025 11.285L39.795 13.715C39.9294 13.909 40.0026 14.1389 40.005 14.375V21.715C40.0073 21.9611 39.9262 22.2008 39.775 22.395L38.025 24.715C37.9215 24.8576 37.7864 24.9742 37.6302 25.0557C37.4741 25.1373 37.3011 25.1815 37.125 25.185H36.275C35.9761 25.1824 35.6902 25.0625 35.4789 24.8511C35.2675 24.6398 35.1476 24.3539 35.145 24.055V11.935ZM20.645 7.155V4.395ZM35.145 17.985H33.295Z" fill="#0055FF"/>
<path d="M4.395 16.175H6.505M20.645 7.155V4.395M35.145 17.985H33.295M14.645 4.395C14.2179 4.36217 13.819 4.16936 13.528 3.8551C13.237 3.54084 13.0753 3.12831 13.0753 2.7C13.0753 2.27169 13.237 1.85916 13.528 1.5449C13.819 1.23065 14.2179 1.03783 14.645 1.005H26.645C26.8785 0.987049 27.1133 1.01755 27.3345 1.09459C27.5557 1.17164 27.7585 1.29356 27.9304 1.45271C28.1022 1.61185 28.2394 1.8048 28.3331 2.01944C28.4269 2.23408 28.4753 2.46577 28.4753 2.7C28.4753 2.93423 28.4269 3.16593 28.3331 3.38056C28.2394 3.5952 28.1022 3.78815 27.9304 3.9473C27.7585 4.10644 27.5557 4.22836 27.3345 4.30541C27.1133 4.38245 26.8785 4.41295 26.645 4.395H14.645ZM6.505 11.485C6.51284 11.0146 6.70456 10.5659 7.03913 10.2351C7.37369 9.90423 7.8245 9.71755 8.295 9.715H9.695L12.355 7.455C12.5587 7.28139 12.8174 7.18571 13.085 7.185H28.345C28.7548 7.18729 29.1478 7.34769 29.4422 7.63275C29.7366 7.91781 29.9095 8.30552 29.925 8.715V10.865H31.715C32.135 10.8676 32.5368 11.0363 32.8328 11.3342C33.1289 11.6321 33.295 12.035 33.295 12.455V24.845C33.295 25.264 33.1285 25.6659 32.8322 25.9622C32.5359 26.2585 32.134 26.425 31.715 26.425H18.155C17.9199 26.4262 17.6899 26.3565 17.495 26.225L12.505 22.715H8.295C8.05653 22.7151 7.82045 22.6675 7.60063 22.575C7.38081 22.4826 7.18167 22.3471 7.01492 22.1767C6.84817 22.0062 6.71717 21.8041 6.6296 21.5823C6.54203 21.3605 6.49967 21.1234 6.505 20.885V11.485ZM4.395 21.265C4.36217 21.6921 4.16936 22.091 3.8551 22.382C3.54084 22.673 3.12831 22.8347 2.7 22.8347C2.27169 22.8347 1.85916 22.673 1.5449 22.382C1.23064 22.091 1.03783 21.6921 1.005 21.265V11.095C0.987049 10.8615 1.01755 10.6267 1.09459 10.4055C1.17164 10.1844 1.29356 9.98146 1.4527 9.80961C1.61185 9.63776 1.8048 9.50065 2.01944 9.40688C2.23408 9.31311 2.46577 9.26471 2.7 9.26471C2.93423 9.26471 3.16593 9.31311 3.38056 9.40688C3.5952 9.50065 3.78815 9.63776 3.9473 9.80961C4.10644 9.98146 4.22836 10.1844 4.30541 10.4055C4.38245 10.6267 4.41295 10.8615 4.395 11.095V21.265ZM35.145 11.935C35.1476 11.6361 35.2675 11.3502 35.4789 11.1389C35.6902 10.9275 35.9761 10.8076 36.275 10.805H37.105C37.2855 10.8057 37.4633 10.8496 37.6234 10.9332C37.7834 11.0167 37.9212 11.1373 38.025 11.285L39.795 13.715C39.9294 13.909 40.0026 14.1389 40.005 14.375V21.715C40.0073 21.9611 39.9262 22.2008 39.775 22.395L38.025 24.715C37.9215 24.8576 37.7864 24.9742 37.6302 25.0557C37.4741 25.1373 37.3011 25.1815 37.125 25.185H36.275C35.9761 25.1824 35.6902 25.0625 35.4789 24.8511C35.2675 24.6398 35.1476 24.3539 35.145 24.055V11.935Z" stroke="black" stroke-linecap="round" stroke-linejoin="round"/>
</svg>
