<svg width="29" height="30" viewBox="0 0 29 30" fill="none" xmlns="http://www.w3.org/2000/svg">
<g filter="url(#filter0_d_251_832)">
<path d="M5.16667 9.77778H12.1667C12.4761 9.77778 12.7728 9.64901 12.9916 9.4198C13.2104 9.19059 13.3333 8.87971 13.3333 8.55556V1.22222C13.3333 0.898069 13.2104 0.587192 12.9916 0.357981C12.7728 0.128769 12.4761 0 12.1667 0H5.16667C4.85725 0 4.5605 0.128769 4.34171 0.357981C4.12292 0.587192 4 0.898069 4 1.22222V8.55556C4 8.87971 4.12292 9.19059 4.34171 9.4198C4.5605 9.64901 4.85725 9.77778 5.16667 9.77778ZM16.8333 9.77778H23.8333C24.1428 9.77778 24.4395 9.64901 24.6583 9.4198C24.8771 9.19059 25 8.87971 25 8.55556V1.22222C25 0.898069 24.8771 0.587192 24.6583 0.357981C24.4395 0.128769 24.1428 0 23.8333 0H16.8333C16.5239 0 16.2272 0.128769 16.0084 0.357981C15.7896 0.587192 15.6667 0.898069 15.6667 1.22222V8.55556C15.6667 8.87971 15.7896 9.19059 16.0084 9.4198C16.2272 9.64901 16.5239 9.77778 16.8333 9.77778ZM5.16667 22H12.1667C12.4761 22 12.7728 21.8712 12.9916 21.642C13.2104 21.4128 13.3333 21.1019 13.3333 20.7778V13.4444C13.3333 13.1203 13.2104 12.8094 12.9916 12.5802C12.7728 12.351 12.4761 12.2222 12.1667 12.2222H5.16667C4.85725 12.2222 4.5605 12.351 4.34171 12.5802C4.12292 12.8094 4 13.1203 4 13.4444V20.7778C4 21.1019 4.12292 21.4128 4.34171 21.642C4.5605 21.8712 4.85725 22 5.16667 22ZM20.3333 22C22.907 22 25 19.8073 25 17.1111C25 14.4149 22.907 12.2222 20.3333 12.2222C17.7597 12.2222 15.6667 14.4149 15.6667 17.1111C15.6667 19.8073 17.7597 22 20.3333 22Z" fill="#1E74FD"/>
</g>
<defs>
<filter id="filter0_d_251_832" x="0" y="0" width="29" height="30" filterUnits="userSpaceOnUse" color-interpolation-filters="sRGB">
<feFlood flood-opacity="0" result="BackgroundImageFix"/>
<feColorMatrix in="SourceAlpha" type="matrix" values="0 0 0 0 0 0 0 0 0 0 0 0 0 0 0 0 0 0 127 0" result="hardAlpha"/>
<feOffset dy="4"/>
<feGaussianBlur stdDeviation="2"/>
<feComposite in2="hardAlpha" operator="out"/>
<feColorMatrix type="matrix" values="0 0 0 0 0 0 0 0 0 0 0 0 0 0 0 0 0 0 0.25 0"/>
<feBlend mode="normal" in2="BackgroundImageFix" result="effect1_dropShadow_251_832"/>
<feBlend mode="normal" in="SourceGraphic" in2="effect1_dropShadow_251_832" result="shape"/>
</filter>
</defs>
</svg>
