<svg width="16" height="16" viewBox="0 0 16 16" fill="none" xmlns="http://www.w3.org/2000/svg">
<path fill-rule="evenodd" clip-rule="evenodd" d="M15.528 2.95383C15.6672 3.00939 15.7866 3.10539 15.8707 3.22945C15.9549 3.35351 15.9999 3.49993 16 3.64983V12.3118C15.9999 12.4617 15.9549 12.6081 15.8707 12.7322C15.7866 12.8563 15.6672 12.9523 15.528 13.0078L8.278 15.9078C8.09922 15.9793 7.89978 15.9793 7.721 15.9078L0.471 13.0078C0.331969 12.9521 0.212805 12.856 0.128861 12.732C0.0449156 12.6079 3.48599e-05 12.4616 0 12.3118L0 3.64983C3.48599e-05 3.50005 0.0449156 3.35371 0.128861 3.22966C0.212805 3.10561 0.331969 3.00954 0.471 2.95383L7.443 0.164825L7.447 0.163825L7.721 0.0538255C7.90008 -0.0179418 8.09992 -0.0179418 8.279 0.0538255L8.553 0.163825L8.557 0.164825L15.528 2.95383ZM14.154 3.48083L8 5.94283L1.846 3.48083L1 3.81983V4.21983L7.5 6.81983V14.7418L8 14.9418L8.5 14.7418V6.82083L15 4.22083V3.82083L14.154 3.48083Z" fill="#0055FF"/>
</svg>
