<svg width="21" height="22" viewBox="0 0 21 22" fill="none" xmlns="http://www.w3.org/2000/svg">
<path d="M2.625 19.4857H6.5625V11.9429H14.4375V19.4857H18.375V8.17143L10.5 2.51429L2.625 8.17143V19.4857ZM2.625 22C1.90313 22 1.28494 21.7536 0.770439 21.2608C0.255939 20.768 -0.000872771 20.1763 2.22835e-06 19.4857V8.17143C2.22835e-06 7.77333 0.0931894 7.39619 0.279564 7.04C0.465939 6.68381 0.722752 6.39048 1.05 6.16L8.925 0.502857C9.16562 0.335238 9.41719 0.209524 9.67969 0.125714C9.94219 0.0419046 10.2156 0 10.5 0C10.7844 0 11.0578 0.0419046 11.3203 0.125714C11.5828 0.209524 11.8344 0.335238 12.075 0.502857L19.95 6.16C20.2781 6.39048 20.5354 6.68381 20.7217 7.04C20.9081 7.39619 21.0009 7.77333 21 8.17143V19.4857C21 20.1771 20.7427 20.7693 20.2282 21.2621C19.7137 21.7549 19.096 22.0008 18.375 22H11.8125V14.4571H9.1875V22H2.625Z" fill="#0055FF"/>
</svg>
