<svg width="24" height="24" viewBox="0 0 24 24" fill="none" xmlns="http://www.w3.org/2000/svg">
<path d="M21.52 10.146C21.3034 10.1028 21.1011 10.0059 20.9316 9.86419C20.7621 9.7225 20.6309 9.54055 20.55 9.335L20.547 9.326L19.938 7.844C19.8446 7.64147 19.805 7.41828 19.8231 7.19599C19.8411 6.9737 19.9162 6.75982 20.041 6.575L20.038 6.58L21.026 5.262C21.1466 5.08945 21.2071 4.88204 21.1983 4.67172C21.1894 4.46139 21.1117 4.25981 20.977 4.098L20.978 4.1L19.896 3.015C19.733 2.88099 19.5306 2.80419 19.3198 2.79642C19.1089 2.78866 18.9014 2.85034 18.729 2.972L18.732 2.97L17.416 3.958C17.2305 4.08274 17.0158 4.15733 16.7929 4.1745C16.57 4.19168 16.3464 4.15085 16.144 4.056L16.152 4.059L14.67 3.45C14.4632 3.37178 14.2797 3.24242 14.1364 3.07401C13.9932 2.90561 13.895 2.70365 13.851 2.487L13.85 2.479L13.621 0.848C13.5832 0.640758 13.482 0.450364 13.3314 0.303117C13.1807 0.155871 12.9881 0.0590398 12.78 0.026L12.774 0.025C12.774 0.025 12.514 0 11.998 0C11.482 0 11.229 0.026 11.229 0.026C11.0197 0.0563154 10.8251 0.151102 10.6722 0.297173C10.5194 0.443245 10.4158 0.633336 10.376 0.841L10.375 0.847L10.142 2.476C10.0989 2.69244 10.002 2.89456 9.8603 3.06372C9.71857 3.23289 9.53655 3.36366 9.331 3.444L9.322 3.447L7.84 4.056C7.63736 4.14914 7.41415 4.1885 7.19187 4.17029C6.9696 4.15207 6.75577 4.07689 6.571 3.952L6.576 3.955L5.258 2.967C5.08549 2.84624 4.87816 2.78535 4.66775 2.79366C4.45734 2.80197 4.25545 2.87901 4.093 3.013L4.095 3.012L3.016 4.099C2.88153 4.2613 2.80434 4.46342 2.79639 4.67404C2.78843 4.88465 2.85016 5.09202 2.972 5.264L2.97 5.261L3.958 6.579C4.08163 6.76497 4.15563 6.97948 4.17296 7.20212C4.19029 7.42477 4.15037 7.64814 4.057 7.851L4.06 7.843L3.449 9.325C3.287 9.744 2.927 10.055 2.486 10.144L2.478 10.145L0.847 10.375C0.63954 10.4142 0.449423 10.517 0.303025 10.6691C0.156627 10.8213 0.0612059 11.0152 0.03 11.224L0.029 11.23C0.029 11.23 0 11.486 0 11.999C0 12.512 0.027 12.769 0.027 12.769C0.091 13.201 0.42 13.542 0.841 13.621L0.847 13.622L2.476 13.854C2.925 13.945 3.286 14.254 3.446 14.665L3.449 14.674L4.06 16.156C4.15367 16.3586 4.19324 16.5819 4.17484 16.8043C4.15643 17.0268 4.08069 17.2406 3.955 17.425L3.958 17.42L2.97 18.738C2.84956 18.8717 2.77263 19.0388 2.74941 19.2173C2.72619 19.3957 2.75779 19.5769 2.84 19.737L2.838 19.732C3.013 19.949 3.515 20.484 3.516 20.486L3.891 20.83C4.095 21.018 4.933 21.279 5.263 21.033L6.58 20.045C6.76542 19.92 6.98017 19.8453 7.20317 19.8283C7.42617 19.8113 7.64976 19.8525 7.852 19.948L7.844 19.945L9.326 20.554C9.746 20.715 10.057 21.076 10.145 21.517L10.146 21.525L10.375 23.151C10.455 23.579 10.795 23.908 11.221 23.973L11.227 23.974C11.227 23.974 11.484 23.999 11.999 23.999C12.514 23.999 12.769 23.972 12.769 23.972C13.199 23.905 13.537 23.576 13.615 23.156L13.616 23.15L13.85 21.521C13.94 21.072 14.25 20.711 14.661 20.553L14.67 20.55L16.152 19.939C16.3546 19.8453 16.5779 19.8058 16.8003 19.8242C17.0228 19.8426 17.2366 19.9183 17.421 20.044L17.416 20.041L18.734 21.029C18.9069 21.1497 19.1146 21.2104 19.3253 21.2015C19.536 21.1926 19.7379 21.1148 19.9 20.98L19.898 20.981L20.98 19.897C21.1138 19.7341 21.1907 19.5318 21.1988 19.3211C21.2069 19.1104 21.1459 18.9028 21.025 18.73L21.027 18.733L20.039 17.415C19.896 17.2014 19.8201 16.95 19.821 16.693C19.821 16.496 19.864 16.31 19.942 16.143L19.939 16.151L20.548 14.669C20.711 14.249 21.072 13.939 21.513 13.85L21.521 13.849L23.148 13.617C23.576 13.537 23.906 13.197 23.97 12.771L23.971 12.765C23.971 12.765 23.998 12.516 23.998 12C23.998 11.484 23.971 11.23 23.971 11.23C23.9402 11.0206 23.8448 10.8259 23.6982 10.6732C23.5516 10.5205 23.361 10.4173 23.153 10.378L23.147 10.377L21.52 10.146ZM11.997 15.001C11.4038 15.0008 10.8239 14.8247 10.3308 14.4951C9.8376 14.1654 9.45323 13.6969 9.22627 13.1488C8.9993 12.6007 8.93991 11.9977 9.05562 11.4159C9.17133 10.834 9.45693 10.2996 9.87633 9.88003C10.2957 9.4605 10.8301 9.17472 11.4119 9.05882C11.9937 8.94292 12.5967 9.0021 13.1449 9.22888C13.6931 9.45567 14.1617 9.83988 14.4915 10.3329C14.8213 10.826 14.9976 11.4058 14.998 11.999C14.9981 12.3931 14.9206 12.7844 14.7698 13.1486C14.6191 13.5127 14.398 13.8436 14.1193 14.1223C13.8406 14.401 13.5097 14.6221 13.1456 14.7728C12.7814 14.9236 12.3911 15.0011 11.997 15.001Z" fill="#1E74FD"/>
</svg>
